<svg xmlns="http://www.w3.org/2000/svg" width="16" height="16" viewBox="0 0 16 16">
    <g fill="none" fill-rule="nonzero">
        <g fill="#F5F5F5">
            <path d="M0 3.692h16v1.23H0zM15.165 1.23H.835a3.493 3.493 0 0 0-.678 1.232h15.686a3.493 3.493 0 0 0-.678-1.231zM0 6.154h16v1.23H0zM0 8.616h16v1.23H0zM0 11.077h16v1.23H0zM15.843 13.538H.157c.142.458.375.875.678 1.231h14.33c.303-.356.536-.773.678-1.23z"/>
        </g>
        <g fill="#FF4B55">
            <path d="M12.5 0h-9A3.492 3.492 0 0 0 .836 1.23h14.328A3.492 3.492 0 0 0 12.5 0zM0 4.923h16v1.231H0zM16 3.5c0-.362-.055-.71-.157-1.038H.157A3.498 3.498 0 0 0 0 3.5v.192h16V3.5zM0 7.385h16v1.231H0zM16 12.5v-.192H0v.192c0 .362.055.71.157 1.038h15.686c.102-.328.157-.676.157-1.038zM15.165 14.77H.835A3.492 3.492 0 0 0 3.5 16h9a3.492 3.492 0 0 0 2.665-1.23zM0 9.846h16v1.231H0z"/>
        </g>
        <path fill="#41479B" d="M8.615 0H3.5A3.5 3.5 0 0 0 0 3.5v5.115h8.615V0z"/>
        <g fill="#F5F5F5">
            <path d="M.93 1.346a.028.028 0 0 0 .043.031l.17-.122.171.122a.028.028 0 0 0 .044-.031l-.064-.2.17-.125A.028.028 0 0 0 1.446.97l-.21-.002L1.2.861c-.09.078-.176.161-.257.248l.049.037-.063.2zM1.17 2.43l.067.199.21.002c.027 0 .038.034.016.05l-.169.125.064.2a.028.028 0 0 1-.044.032l-.17-.122-.171.122a.028.028 0 0 1-.044-.032l.064-.2-.17-.124A.028.028 0 0 1 .84 2.63l.21-.002.067-.2a.028.028 0 0 1 .053 0zM1.17 4.271l.067.2.21.001c.027 0 .038.035.016.051l-.169.125.064.2a.028.028 0 0 1-.044.031l-.17-.122-.171.122a.028.028 0 0 1-.044-.031l.064-.2-.17-.125a.028.028 0 0 1 .017-.05l.21-.002.067-.2a.028.028 0 0 1 .053 0zM1.17 5.964l.067.199.21.001c.027 0 .038.035.016.051l-.169.125.064.2a.028.028 0 0 1-.044.032l-.17-.123-.171.123a.028.028 0 0 1-.044-.032l.064-.2-.17-.125a.028.028 0 0 1 .017-.05l.21-.002.067-.2a.028.028 0 0 1 .053 0zM1.17 7.503l.067.2.21.001c.027 0 .038.035.016.051l-.169.125.064.2a.028.028 0 0 1-.044.031l-.17-.122-.171.122a.028.028 0 0 1-.044-.031l.064-.2-.17-.125a.028.028 0 0 1 .017-.051l.21-.002.067-.199a.028.028 0 0 1 .053 0zM1.979 1.556l.066.199.21.001c.027 0 .038.035.016.051l-.168.125.063.2a.028.028 0 0 1-.043.032l-.171-.122-.17.122a.028.028 0 0 1-.044-.032l.063-.2-.169-.125a.028.028 0 0 1 .017-.05l.21-.002.066-.2a.028.028 0 0 1 .054 0zM1.979 3.397l.066.2.21.001c.027 0 .038.035.016.051l-.168.125.063.2a.028.028 0 0 1-.043.031l-.171-.122-.17.122a.028.028 0 0 1-.044-.031l.063-.2-.169-.125a.028.028 0 0 1 .017-.051l.21-.002.066-.199a.028.028 0 0 1 .054 0zM1.979 5.147l.066.2h.21c.027 0 .038.036.016.052l-.168.124.063.2a.028.028 0 0 1-.043.032l-.171-.122-.17.122a.028.028 0 0 1-.044-.032l.063-.2-.169-.124a.028.028 0 0 1 .017-.051l.21-.002.066-.199a.028.028 0 0 1 .054 0zM1.979 6.718l.066.2.21.001c.027 0 .038.035.016.051l-.168.125.063.2a.028.028 0 0 1-.043.031l-.171-.122-.17.122a.028.028 0 0 1-.044-.031l.063-.2-.169-.125a.028.028 0 0 1 .017-.051l.21-.002.066-.199a.028.028 0 0 1 .054 0zM2.787.77l.066.198.21.002c.027 0 .039.035.017.051l-.17.125.064.2a.028.028 0 0 1-.043.031l-.171-.122-.17.122a.028.028 0 0 1-.044-.031l.063-.2-.169-.125A.028.028 0 0 1 2.457.97l.21-.002.066-.199a.028.028 0 0 1 .054 0zM2.787 2.43l.066.199.21.002c.027 0 .039.034.017.05l-.17.125.064.2a.028.028 0 0 1-.043.032l-.171-.122-.17.122a.028.028 0 0 1-.044-.032l.063-.2-.169-.124a.028.028 0 0 1 .017-.051l.21-.002.066-.2a.028.028 0 0 1 .054 0zM2.787 4.271l.066.2.21.001c.027 0 .039.035.017.051l-.17.125.064.2a.028.028 0 0 1-.043.031l-.171-.122-.17.122a.028.028 0 0 1-.044-.031l.063-.2-.169-.125a.028.028 0 0 1 .017-.05l.21-.002.066-.2a.028.028 0 0 1 .054 0zM2.787 5.964l.066.199.21.001c.027 0 .039.035.017.051l-.17.125.064.2a.028.028 0 0 1-.043.032l-.171-.123-.17.123a.028.028 0 0 1-.044-.032l.063-.2-.169-.125a.028.028 0 0 1 .017-.05l.21-.002.066-.2a.028.028 0 0 1 .054 0zM2.787 7.503l.066.2.21.001c.027 0 .039.035.017.051l-.17.125.064.2a.028.028 0 0 1-.043.031L2.76 7.99l-.17.122a.028.028 0 0 1-.044-.031l.063-.2-.169-.125a.028.028 0 0 1 .017-.051l.21-.002.066-.199a.028.028 0 0 1 .054 0zM3.595 1.556l.067.199.21.001c.026 0 .038.035.016.051l-.169.125.063.2a.028.028 0 0 1-.043.032l-.17-.122-.171.122a.028.028 0 0 1-.044-.032l.063-.2-.168-.125a.028.028 0 0 1 .016-.05l.21-.002.066-.2a.028.028 0 0 1 .054 0zM3.595 3.397l.067.2.21.001c.026 0 .038.035.016.051l-.169.125.063.2a.028.028 0 0 1-.043.031l-.17-.122-.171.122a.028.028 0 0 1-.044-.031l.063-.2-.168-.125a.028.028 0 0 1 .016-.051l.21-.002.066-.199a.028.028 0 0 1 .054 0zM3.595 5.147l.067.2h.21c.026 0 .038.036.016.052l-.169.124.063.2a.028.028 0 0 1-.043.032l-.17-.122-.171.122a.028.028 0 0 1-.044-.032l.063-.2L3.25 5.4a.028.028 0 0 1 .016-.051l.21-.002.066-.199a.028.028 0 0 1 .054 0zM3.595 6.718l.067.2.21.001c.026 0 .038.035.016.051l-.169.125.063.2a.028.028 0 0 1-.043.031l-.17-.122-.171.122a.028.028 0 0 1-.044-.031l.063-.2-.168-.125a.028.028 0 0 1 .016-.051l.21-.002.066-.199a.028.028 0 0 1 .054 0zM4.403.77l.067.198.21.002c.027 0 .038.035.016.051l-.169.125.064.2a.028.028 0 0 1-.044.031l-.17-.122-.171.122a.028.028 0 0 1-.044-.031l.064-.2-.17-.125A.028.028 0 0 1 4.074.97l.21-.002L4.35.77a.028.028 0 0 1 .053 0zM4.403 2.43l.067.199.21.002c.027 0 .038.034.016.05l-.169.125.064.2a.028.028 0 0 1-.044.032l-.17-.122-.171.122a.028.028 0 0 1-.044-.032l.064-.2-.17-.124a.028.028 0 0 1 .017-.051l.21-.002.067-.2a.028.028 0 0 1 .053 0zM4.403 4.271l.067.2.21.001c.027 0 .038.035.016.051l-.169.125.064.2a.028.028 0 0 1-.044.031l-.17-.122-.171.122a.028.028 0 0 1-.044-.031l.064-.2-.17-.125a.028.028 0 0 1 .017-.05l.21-.002.067-.2a.028.028 0 0 1 .053 0zM4.403 5.964l.067.199.21.001c.027 0 .038.035.016.051l-.169.125.064.2a.028.028 0 0 1-.044.032l-.17-.123-.171.123a.028.028 0 0 1-.044-.032l.064-.2-.17-.125a.028.028 0 0 1 .017-.05l.21-.002.067-.2a.028.028 0 0 1 .053 0zM4.403 7.503l.067.2.21.001c.027 0 .038.035.016.051l-.169.125.064.2a.028.028 0 0 1-.044.031l-.17-.122-.171.122a.028.028 0 0 1-.044-.031l.064-.2-.17-.125a.028.028 0 0 1 .017-.051l.21-.002.067-.199a.028.028 0 0 1 .053 0zM5.212 1.556l.066.199.21.001c.027 0 .038.035.016.051l-.168.125.063.2a.028.028 0 0 1-.044.032l-.17-.122-.171.122a.028.028 0 0 1-.043-.032l.063-.2-.169-.125a.028.028 0 0 1 .017-.05l.21-.002.066-.2c.009-.025.045-.025.054 0zM5.212 3.397l.066.2.21.001c.027 0 .038.035.016.051l-.168.125.063.2a.028.028 0 0 1-.044.031l-.17-.122-.171.122a.028.028 0 0 1-.043-.031l.063-.2-.169-.125a.028.028 0 0 1 .017-.051l.21-.002.066-.199c.009-.025.045-.025.054 0zM5.212 5.147l.066.2h.21c.027 0 .038.036.016.052l-.168.124.063.2a.028.028 0 0 1-.044.032l-.17-.122-.171.122a.028.028 0 0 1-.043-.032l.063-.2-.169-.124a.028.028 0 0 1 .017-.051l.21-.002.066-.199c.009-.026.045-.026.054 0zM5.212 6.718l.066.2.21.001c.027 0 .038.035.016.051l-.168.125.063.2a.028.028 0 0 1-.044.031l-.17-.122-.171.122a.028.028 0 0 1-.043-.031l.063-.2-.169-.125a.028.028 0 0 1 .017-.051l.21-.002.066-.199c.009-.025.045-.025.054 0zM6.02.77l.066.198.21.002c.027 0 .038.035.017.051l-.17.125.064.2a.028.028 0 0 1-.043.031l-.171-.122-.17.122a.028.028 0 0 1-.044-.031l.063-.2-.169-.125A.028.028 0 0 1 5.69.97L5.9.968 5.966.77c.009-.025.045-.025.054 0zM6.02 2.43l.066.199.21.002c.027 0 .038.034.017.05l-.17.125.064.2a.028.028 0 0 1-.043.032l-.171-.122-.17.122a.028.028 0 0 1-.044-.032l.063-.2-.169-.124a.028.028 0 0 1 .017-.051l.21-.002.066-.2c.009-.025.045-.025.054 0zM6.02 4.271l.066.2.21.001c.027 0 .038.035.017.051l-.17.125.064.2a.028.028 0 0 1-.043.031l-.171-.122-.17.122a.028.028 0 0 1-.044-.031l.063-.2-.169-.125a.028.028 0 0 1 .017-.05l.21-.002.066-.2c.009-.025.045-.025.054 0zM6.02 5.964l.066.199.21.001c.027 0 .038.035.017.051l-.17.125.064.2a.028.028 0 0 1-.043.032l-.171-.123-.17.123a.028.028 0 0 1-.044-.032l.063-.2-.169-.125a.028.028 0 0 1 .017-.05l.21-.002.066-.2c.009-.025.045-.025.054 0zM6.02 7.503l.066.2.21.001c.027 0 .038.035.017.051l-.17.125.064.2a.028.028 0 0 1-.043.031l-.171-.122-.17.122a.028.028 0 0 1-.044-.031l.063-.2-.169-.125a.028.028 0 0 1 .017-.051l.21-.002.066-.199c.009-.025.045-.025.054 0zM6.828 1.556l.066.199.21.001c.027 0 .039.035.017.051l-.169.125.063.2a.028.028 0 0 1-.043.032l-.17-.122-.172.122a.028.028 0 0 1-.043-.032l.063-.2-.169-.125a.028.028 0 0 1 .017-.05l.21-.002.066-.2a.028.028 0 0 1 .054 0zM6.828 3.397l.066.2.21.001c.027 0 .039.035.017.051l-.169.125.063.2a.028.028 0 0 1-.043.031l-.17-.122-.172.122a.028.028 0 0 1-.043-.031l.063-.2-.169-.125a.028.028 0 0 1 .017-.051l.21-.002.066-.199a.028.028 0 0 1 .054 0zM6.828 5.147l.066.2h.21c.027 0 .039.036.017.052l-.169.124.063.2a.028.028 0 0 1-.043.032l-.17-.122-.172.122a.028.028 0 0 1-.043-.032l.063-.2-.169-.124a.028.028 0 0 1 .017-.051l.21-.002.066-.199a.028.028 0 0 1 .054 0zM6.828 6.718l.066.2.21.001c.027 0 .039.035.017.051l-.169.125.063.2a.028.028 0 0 1-.043.031l-.17-.122-.172.122a.028.028 0 0 1-.043-.031l.063-.2-.169-.125a.028.028 0 0 1 .017-.051l.21-.002.066-.199a.028.028 0 0 1 .054 0zM7.636.77l.067.198.21.002c.027 0 .038.035.016.051l-.169.125.063.2a.028.028 0 0 1-.043.031l-.17-.122-.171.122a.028.028 0 0 1-.044-.031l.064-.2-.17-.125A.028.028 0 0 1 7.307.97l.21-.002.066-.199c.01-.025.046-.025.054 0zM7.636 2.43l.067.199.21.002c.027 0 .038.034.016.05l-.169.125.063.2a.028.028 0 0 1-.043.032l-.17-.122-.171.122a.028.028 0 0 1-.044-.032l.064-.2-.17-.124a.028.028 0 0 1 .017-.051l.21-.002.066-.2c.01-.025.046-.025.054 0zM7.636 4.271l.067.2.21.001c.027 0 .038.035.016.051l-.169.125.063.2a.028.028 0 0 1-.043.031l-.17-.122-.171.122a.028.028 0 0 1-.044-.031l.064-.2-.17-.125a.028.028 0 0 1 .017-.05l.21-.002.066-.2c.01-.025.046-.025.054 0zM7.636 5.964l.067.199.21.001c.027 0 .038.035.016.051l-.169.125.063.2a.028.028 0 0 1-.043.032l-.17-.123-.171.123a.028.028 0 0 1-.044-.032l.064-.2-.17-.125a.028.028 0 0 1 .017-.05l.21-.002.066-.2c.01-.025.046-.025.054 0zM7.636 7.503l.067.2.21.001c.027 0 .038.035.016.051l-.169.125.063.2a.028.028 0 0 1-.043.031l-.17-.122-.171.122a.028.028 0 0 1-.044-.031l.064-.2-.17-.125a.028.028 0 0 1 .017-.051l.21-.002.066-.199c.01-.025.046-.025.054 0z"/>
        </g>
    </g>
</svg>
