<svg xmlns="http://www.w3.org/2000/svg" width="162" height="29" viewBox="0 0 162 29">
    <defs>
        <linearGradient id="a" x1="3.938%" x2="58.269%" y1="34.712%" y2="59.375%">
            <stop offset="0%" stop-color="#17DFFF"/>
            <stop offset="100%" stop-color="#6671FF"/>
        </linearGradient>
    </defs>
    <g fill="none" fill-rule="evenodd">
        <path fill="#FFF" d="M149.261 17.687c.057 1.238.053 2.192.155 3.135.173 1.596 1.112 2.874 3.084 3.005 1.881.126 3.317-.882 3.593-2.74.29-1.957.241-3.934.05-5.895-.11-1.14-.69-2.05-1.787-2.541-.637-.285-1.315-.33-2.007-.294a3.07 3.07 0 0 0-2.87 2.557c-.164 1.003-.161 2.024-.218 2.773zm.054-8.79c.661-.353 1.262-.778 1.93-1.011 3.48-1.217 8.712-.104 10.07 5.12.265 1.026.365 2.112.397 3.174.047 1.633.058 3.276-.075 4.901-.249 3.014-1.577 5.393-4.407 6.754-1.38.663-2.863.894-4.377.898-1.847.005-3.63-.306-5.245-1.277-1.717-1.032-2.79-2.548-3.354-4.446-.32-1.075-.423-2.177-.422-3.294.003-5.51.001-11.02.002-16.529 0-.2.002-.402.016-.603.075-1.122.741-2.018 1.707-2.3 1.298-.38 2.543-.054 3.212.847.446.6.539 1.304.543 2.021.01 1.783.003 3.566.003 5.349v.395zM28.678 8.896c.655-.35 1.246-.764 1.901-.997 3.39-1.204 8.432-.24 9.703 4.981a14.11 14.11 0 0 1 .385 3.097c.049 3.178.026 6.356.008 9.534-.002.46-.065.945-.22 1.376-.456 1.274-1.861 1.9-3.284 1.519-1.26-.338-1.954-1.253-1.96-2.646-.01-3.124.002-6.248-.011-9.373a8.285 8.285 0 0 0-.135-1.517c-.26-1.357-1.035-2.26-2.445-2.471-1.462-.219-2.818.151-3.497 1.52-.334.673-.442 1.4-.443 2.145 0 3.165.013 6.33-.016 9.494a4.012 4.012 0 0 1-.322 1.554c-.472 1.062-1.42 1.41-2.514 1.375-1.641-.052-2.616-1.067-2.625-2.732-.014-2.963-.005-5.926-.005-8.89 0-4.6.001-9.198-.002-13.798 0-.67.09-1.318.49-1.871C24.449.139 25.53 0 26.708.225c.994.188 1.685.932 1.884 2.008.058.314.081.639.083.958.007 1.903.003 3.807.003 5.705M54.63 15.656c-.005-1.323-.444-2.383-1.635-2.952-1.25-.597-2.516-.527-3.65.313-.866.641-1.181 1.567-1.163 2.639h6.449zm-6.442 4.429c-.087 1.66.67 3.016 1.998 3.496 1.41.51 3.099.309 4.174-1.012.79-.971 1.777-1.396 3.02-1.153 1.616.317 2.167 1.746 1.942 2.986-.252 1.387-1.225 2.257-2.334 2.982-1.192.778-2.537 1.13-3.94 1.272-1.782.18-3.542.08-5.233-.553-2.7-1.012-4.281-2.996-4.868-5.779a11.86 11.86 0 0 1-.249-2.309c-.017-1.687-.067-3.384.079-5.062.34-3.903 2.74-6.71 6.72-7.347 1.945-.312 3.86-.223 5.696.504 2.611 1.034 4.059 3.045 4.65 5.734.282 1.283.295 2.582.23 3.88-.071 1.455-1.058 2.353-2.526 2.357-2.954.007-5.907.003-8.86.004h-.499zM124.463 15.576V10.71c-.002-.75.085-1.473.57-2.088.644-.814 1.902-1.163 3.048-.83 1.071.312 1.64 1.065 1.795 2.142.052.357.067.721.068 1.082.01 3.098 0 6.195.03 9.292a5.02 5.02 0 0 0 .271 1.532c.516 1.527 1.682 2.034 3.13 1.983 2.037-.071 2.838-1.41 3.029-3.068.057-.49.06-.99.061-1.485.006-2.856.005-5.713.002-8.569-.001-.795.107-1.564.667-2.172.845-.918 1.922-1.01 3.041-.696 1.098.307 1.612 1.132 1.729 2.227.03.293.044.589.044.883.003 2.977.004 5.954.001 8.93-.001 1.695-.259 3.334-1.084 4.846-1.175 2.154-3.047 3.334-5.4 3.8-1.733.343-3.474.316-5.185-.155-2.987-.824-4.842-2.771-5.53-5.774-.204-.891-.247-1.83-.276-2.749-.044-1.42-.011-2.842-.011-4.264M7.593 7.047c-1.656 0-3.252.014-4.847-.006-.86-.01-1.667-.231-2.196-.972-.675-.947-.706-1.985-.216-3.009.454-.95 1.325-1.307 2.32-1.313 3.652-.02 7.303-.01 10.955-.01 1.665 0 3.33-.017 4.994.012.909.015 1.738.302 2.227 1.133.549.932.554 1.926.076 2.883-.474.95-1.372 1.248-2.351 1.272-1.476.036-2.954.01-4.43.01h-.485v.548c0 5.818.003 11.636-.006 17.453 0 .478-.02.975-.148 1.43-.38 1.348-1.5 2.082-2.965 2.014-1.795-.083-2.825-1.147-2.921-3.021-.01-.174-.006-.349-.006-.523V7.047zM122.518 15.31c-.018-1.67-.433-3.258-1.31-4.705-2.07-3.413-6.764-3.809-9.412-2.427-.421.219-.81.5-1.265.786v-.465c0-1.877.008-3.753-.006-5.63-.011-1.534-.811-2.493-2.313-2.704-1.23-.173-2.484.26-2.932 1.566-.157.458-.218.97-.219 1.457-.01 6.06-.01 12.118-.009 18.177l.094-.1a3.716 3.716 0 0 1 2.645-1.095c1 0 1.94.39 2.646 1.097.032.032.062.065.093.098 0-1.63 0-3.262.005-4.892.001-.455.031-.912.088-1.362.19-1.504 1.03-2.428 2.49-2.71.364-.07.752-.072 1.122-.035 1.209.12 2.132.69 2.499 1.886.197.641.303 1.335.31 2.006.031 3.124.01 6.248.018 9.371.001.753.168 1.466.69 2.047.714.795 2.027 1.041 3.206.614.943-.342 1.566-1.26 1.571-2.444.014-3.512.028-7.025-.011-10.537"/>
        <path fill="url(#a)" d="M69.67 1.735l.92.001 1.076.001h1.075l2.518-.001 2.518.006.251.005c.252.01.505.035.746.094l.178.05c1.159.359 1.791 1.318 1.734 2.605l-.014.195c-.12 1.274-.84 2.06-2.108 2.279l-.278.04a4.85 4.85 0 0 1-.56.034l-4.532.004h-5.021v5.541h5.35l2.717.01.179.005c.767.038 1.463.303 1.937.96l.118.176c.555.883.554 1.85.114 2.796l-.093.18c-.517.912-1.452 1.169-2.457 1.178l-1.752.01c-1.168.004-2.336.002-3.504 0l-1.058-.001-1.058-.001h-.516v2.846c.001 1.582.001 3.164-.009 4.746l-.006.208c-.036.69-.24 1.342-.731 1.864l-.158.158c-.907.846-2.015.932-3.18.605l-.196-.062c-1.015-.359-1.541-1.167-1.7-2.244l-.036-.319a7.431 7.431 0 0 1-.026-.642l-.003-9.955.005-9.955.004-.256c.01-.343.04-.69.119-1.019l.047-.176c.362-1.21 1.405-1.945 2.808-1.955 1.22-.009 2.44-.01 3.66-.01h.921zm38.121 20.512l.174.005c1.545.095 2.624 1.456 2.565 2.981v.185c-.007.866-.151 1.769-.806 2.389l-.154.133c-.583.457-1.356.599-2.086.536l-.182-.021c-.666-.095-1.294-.394-1.705-.943l-.117-.172c-.357-.578-.413-1.24-.426-1.91l-.003-.27.001.094.007-.202c.036-.73.213-1.388.74-1.947a2.753 2.753 0 0 1 1.992-.858zm-17.9-20.519l1.497.004c.998.005 1.996.015 2.994.032l.422.013c1.263.056 2.514.267 3.716.72l.246.098c2.095.877 3.183 2.507 3.459 4.762l.04.37c.118 1.23.063 2.451-.288 3.65l-.085.266a5.069 5.069 0 0 1-2.129 2.692l-.032.023-.123.104.313.193c.308.187.601.361.876.56l.224.171c1.016.817 1.632 1.905 1.903 3.18l.076.391c.28 1.569.236 3.142-.189 4.7l-.076.26c-.617 1.95-2.002 3.127-3.949 3.743l-.46.133c-1.383.369-2.803.452-4.232.455l-4.108.002-4.11-.001-.195-.003c-.97-.028-1.846-.284-2.48-1.114l-.133-.191c-.37-.585-.472-1.253-.473-1.934l-.006-6.677c-.002-4.451.001-8.903.016-13.354l.007-.237a4.27 4.27 0 0 1 .319-1.4l.088-.189c.5-.972 1.426-1.384 2.502-1.396a400.98 400.98 0 0 1 4.37-.026zm1.246 15.521c-.817-.004-1.642.003-2.499.003V20c0 .905 0 1.802-.003 2.699 0 .221.114.258.29.258h.017l1.379-.01c1.379-.005 2.758-.005 4.135-.063l.201-.012c1.572-.13 2.329-.995 2.371-2.551l.001-.204c-.024-1.605-.891-2.572-2.547-2.755l-.504-.046c-.672-.047-1.35-.048-2.025-.058zm.735-10.205c-.976-.004-1.951.005-2.926.005l-.09.004-.193.022v5.035h3.915a8.81 8.81 0 0 0 .565-.019l.36-.031c.24-.025.48-.058.717-.1l.19-.037c1.363-.304 2.042-1.225 1.97-2.664l-.014-.182c-.09-.944-.504-1.486-1.452-1.779l-.307-.083a6.163 6.163 0 0 0-1.273-.154z"/>
    </g>
</svg>
